<?xml version="1.0" standalone="no"?>
<!DOCTYPE svg PUBLIC "-//W3C//DTD SVG 20010904//EN"
 "http://www.w3.org/TR/2001/REC-SVG-20010904/DTD/svg10.dtd">
<svg version="1.0" xmlns="http://www.w3.org/2000/svg"
 width="1024.000000pt" height="1024.000000pt" viewBox="0 0 1024.000000 1024.000000"
 preserveAspectRatio="xMidYMid meet">

<g transform="translate(0.000000,1024.000000) scale(0.100000,-0.100000)"
fill="#000000" stroke="none">
<path d="M4320 8813 c-39 -21 -49 -42 -130 -278 -28 -82 -67 -193 -85 -245
-80 -226 -147 -416 -202 -572 l-58 -167 -335 -195 -335 -195 -205 202 c-362
357 -399 391 -437 405 -107 37 -176 -77 -104 -174 15 -21 66 -75 112 -118 235
-222 439 -430 427 -438 -7 -5 -26 -16 -43 -25 -16 -8 -77 -43 -135 -78 -58
-34 -305 -178 -550 -320 -245 -142 -475 -275 -512 -297 -37 -21 -74 -48 -83
-60 -17 -26 -20 -90 -5 -119 14 -25 62 -49 97 -49 28 0 160 72 538 295 105 61
348 203 540 315 193 111 365 212 383 222 l32 20 0 -434 0 -433 -48 -25 c-26
-15 -105 -60 -177 -102 -153 -89 -1205 -691 -1285 -735 -30 -17 -89 -51 -130
-75 -41 -24 -97 -55 -123 -68 -79 -41 -108 -70 -114 -116 -10 -78 46 -134 120
-120 18 3 141 68 272 144 287 165 316 182 700 400 165 93 403 229 530 302 126
73 235 135 242 137 10 4 13 -79 13 -409 l0 -415 -137 -80 c-76 -44 -284 -164
-463 -268 -179 -103 -365 -211 -415 -240 -49 -29 -157 -92 -240 -140 -323
-188 -335 -196 -351 -227 -22 -43 -10 -101 28 -133 52 -44 91 -33 263 74 93
58 221 133 685 401 184 106 398 229 475 274 76 45 143 83 147 84 4 2 8 -154 8
-346 l0 -350 25 -30 c13 -16 47 -39 75 -51 28 -12 124 -65 213 -117 89 -53
183 -107 210 -120 26 -14 145 -82 265 -153 245 -145 895 -522 930 -540 12 -6
22 -15 22 -19 0 -5 -93 -61 -207 -127 -201 -115 -307 -177 -499 -291 -50 -30
-97 -54 -104 -54 -8 0 -39 15 -70 33 -50 31 -491 290 -735 433 -55 32 -105 59
-110 60 -6 1 -51 26 -102 57 -50 30 -144 86 -210 122 -65 37 -201 117 -303
178 -250 149 -281 163 -332 148 -71 -22 -101 -118 -53 -171 10 -11 77 -52 149
-91 72 -39 274 -153 449 -253 228 -130 312 -182 300 -187 -10 -4 -73 -14 -139
-23 -67 -9 -132 -19 -145 -21 -13 -3 -51 -7 -84 -10 -33 -3 -69 -8 -81 -10
-11 -3 -85 -12 -165 -20 -79 -9 -159 -23 -177 -32 -74 -35 -81 -134 -12 -181
31 -21 43 -23 100 -18 62 5 522 64 833 106 81 11 160 20 175 20 16 0 77 -29
142 -66 396 -228 737 -428 749 -439 11 -11 -9 -71 -119 -361 -111 -292 -131
-355 -127 -387 7 -48 29 -74 77 -88 30 -9 43 -8 68 5 43 22 52 38 122 221 33
88 67 176 75 195 8 19 35 89 60 155 25 66 50 124 55 129 8 8 197 -96 355 -194
33 -21 206 -122 385 -225 179 -104 362 -210 406 -237 118 -70 187 -64 214 17
15 46 5 90 -28 116 -15 11 -117 72 -227 136 -344 198 -659 383 -973 573 l-303
182 53 32 c29 18 152 90 273 161 121 71 279 163 352 206 l132 78 88 -51 c48
-28 187 -108 308 -178 121 -70 292 -170 380 -222 89 -52 219 -129 290 -170 72
-41 198 -115 280 -163 426 -251 492 -287 525 -291 47 -6 81 13 103 58 16 33
16 39 2 74 -18 46 -7 39 -360 244 -154 90 -500 292 -770 450 -269 158 -521
305 -559 326 -38 22 -69 43 -70 47 -1 5 105 69 234 144 129 74 317 184 418
244 101 60 188 109 194 109 6 0 101 -53 212 -119 110 -65 327 -193 481 -283
154 -91 402 -237 550 -325 360 -213 397 -233 429 -233 48 0 84 26 97 70 19 63
-3 99 -93 151 -140 81 -515 304 -728 432 -118 72 -224 135 -235 141 -87 49
-485 291 -485 295 0 3 31 23 68 45 37 21 215 124 397 229 181 104 335 197 342
206 10 12 12 198 13 810 0 693 2 792 15 788 8 -4 173 -101 367 -216 194 -116
360 -214 368 -219 13 -8 16 -123 20 -906 l5 -898 33 -29 c45 -40 99 -40 144 0
l33 29 5 533 5 533 289 -312 c160 -171 301 -315 315 -320 61 -21 124 7 140 63
19 72 26 63 -354 470 -77 83 -192 206 -255 274 -63 68 -122 131 -130 139 -13
14 -15 86 -14 534 0 285 3 521 7 524 6 6 183 54 537 145 227 58 246 65 265 93
24 33 19 110 -7 141 -39 44 -76 42 -279 -13 -251 -69 -493 -132 -507 -132 -9
0 -12 165 -12 705 0 762 1 742 -52 779 -29 21 -87 20 -117 0 -52 -37 -51 -5
-51 -1100 0 -558 -4 -1014 -9 -1012 -4 2 -177 104 -384 228 l-377 225 0 1208
0 1209 -29 29 c-50 49 -139 37 -173 -24 -10 -17 -14 -270 -18 -1154 l-5 -1131
-322 191 c-177 106 -394 233 -482 282 l-160 90 -3 1023 -3 1024 -33 29 c-45
40 -99 40 -144 0 l-33 -29 -3 -956 c-1 -526 -4 -956 -6 -956 -3 0 -82 44 -178
98 -519 295 -541 305 -594 268 -11 -8 -142 -85 -290 -172 -355 -207 -797 -464
-909 -529 -49 -29 -175 -102 -280 -162 l-190 -110 -5 426 c-3 234 -5 426 -5
427 0 1 151 89 335 196 184 108 495 289 690 404 195 114 465 271 600 348 254
147 290 176 290 235 0 43 -35 89 -75 100 -42 11 -89 -2 -152 -42 -72 -48 -980
-577 -988 -577 -3 0 18 64 46 143 322 908 302 848 284 895 -25 62 -86 85 -145
55z m1113 -2001 c144 -81 306 -173 359 -203 l98 -54 0 -985 c0 -1116 -5 -1041
78 -1070 40 -14 45 -13 80 5 20 11 42 31 49 45 10 20 13 227 13 953 0 510 2
927 4 927 7 0 621 -359 941 -551 l30 -18 -3 -808 -2 -808 -188 -112 c-103 -61
-289 -170 -413 -242 l-226 -131 -134 76 c-74 42 -273 159 -444 259 -170 100
-429 251 -575 335 -146 84 -304 177 -351 207 -115 71 -137 78 -182 59 -20 -8
-43 -25 -51 -39 -22 -33 -23 -90 -3 -121 17 -26 165 -116 501 -305 109 -62
291 -167 404 -233 113 -66 296 -172 406 -235 111 -63 204 -117 208 -121 7 -7
-99 -70 -539 -324 -123 -70 -241 -139 -263 -153 -22 -14 -43 -25 -47 -25 -4 0
-36 17 -72 39 -36 21 -223 129 -416 241 -192 112 -420 244 -505 295 -85 51
-258 152 -385 225 -126 73 -260 151 -297 174 l-68 41 0 337 c0 185 -3 343 -6
351 -8 22 167 126 1506 897 262 151 275 160 294 191 46 78 -18 171 -107 156
-18 -3 -108 -50 -200 -106 -92 -55 -317 -187 -499 -292 -183 -105 -346 -199
-363 -209 -16 -10 -77 -45 -135 -78 -58 -33 -190 -110 -295 -170 l-190 -110
-3 411 c-1 226 1 414 5 418 10 10 415 247 893 524 429 248 496 287 690 403 74
44 136 81 138 81 2 1 121 -66 265 -147z"/>
</g>
</svg>
